<svg id="Layer_1" data-name="Layer 1" xmlns="http://www.w3.org/2000/svg" viewBox="0 0 906.5 226.79"><defs><style>.cls-1{fill:#fff;}</style></defs><title>Artboard 1</title><path class="cls-1" d="M323,34.89c-31.2,31.93-74,33.36-111.76,30.54a4.21,4.21,0,0,0-2.36,7.89c9.78,5.44,22.27,9.62,34.75,11.9-2.19,15.76-21,60.61-32.44,78.88a4.22,4.22,0,0,0,6.34,5.42c12-10.4,35.17-37.11,49.87-54.44.83,1.76,1.76,3.72,2.74,5.82,6.49,13.83,17.35,37,25.18,50a4.21,4.21,0,0,0,7.83-2.17,4,4,0,0,0,0-.59,569.47,569.47,0,0,1-5.77-77.9c0-4.54.07-7.64.13-9.4,17.43-15.76,27.81-29,32.49-41.52a4.22,4.22,0,0,0-7-4.42"/><path class="cls-1" d="M258.85,4.75a24.92,24.92,0,0,0,3.31,45.91,24.86,24.86,0,0,0,31.43-15.8A25,25,0,0,0,277.82,3.38a24.67,24.67,0,0,0-19,1.37"/><path class="cls-1" d="M95.85,147.65c-6,2.69-20.65,8.49-37.38,8.49-31.39,0-56.79-19.45-56.79-75.31,0-37.86,12.39-72,53.9-72,29.12,0,45.84,17,45.84,41.38h-24C77.47,41.51,75,25.38,55,25.38c-26.85,0-30.57,32.69-30.57,52.13,0,35.79,8.68,62.07,38.21,62.07,17.55,0,29.53-8.9,33.25-11.17Z"/><path class="cls-1" d="M120.42,11.1H139V76.48h.41c3.3-8.27,11.15-23.38,31.18-23.38C193.32,53.1,197,73.38,197,85.58v68.27H178.45V100.06c0-18.21,0-28.34-13.42-28.34-15.28,0-26,20.69-26,40.34v41.79H120.42Z"/><rect class="cls-1" x="341.58" y="11.11" width="18.58" height="142.75"/><path class="cls-1" d="M421.91,141.65c15.08,0,21.27-20.9,21.27-37.24,0-17.17-5-36.82-21.47-36.82-14.46,0-19.21,16.35-19.21,37,0,14.89,2.07,37,19.41,37m21.27-2.9h-.41c-2.06,5.59-10.12,17.38-27.26,17.38-24,0-33.66-21.72-33.66-49.86,0-32.69,12.39-53.17,34.69-53.17,16.32,0,24,10.14,26.23,15.93h.41V11.1h18.58V153.86H443.18Z"/><polygon class="cls-1" points="493.36 11.1 569.76 11.1 569.76 27.65 514.01 27.65 514.01 71.31 566.88 71.31 566.88 87.86 514.01 87.86 514.01 153.85 493.36 153.85 493.36 11.1"/><path class="cls-1" d="M639.56,132.75h-.41C636.05,141,628,156.13,608,156.13c-22.72,0-26.44-20.27-26.44-32.48V55.38h18.59v53.79c0,18.41,0,28.34,13.42,28.34,15.29,0,26-20.69,26-40.34V55.38h18.58v98.48H639.56Z"/><path class="cls-1" d="M685.61,55.38h18.58v21.1h.41c3.3-8.27,11.15-23.38,31.18-23.38,22.71,0,26.43,20.28,26.43,32.48v68.27H743.63V100.06c0-18.21,0-28.34-13.42-28.34-15.28,0-26,20.69-26,40.34v41.79H685.61Z"/><path class="cls-1" d="M821.69,141.65c15.08,0,21.27-20.9,21.27-37.24,0-17.17-5-36.82-21.47-36.82-14.46,0-19.21,16.35-19.21,37,0,14.89,2.07,37,19.41,37m21.27-2.9h-.41c-2.06,5.59-10.12,17.38-27.26,17.38-24,0-33.66-21.72-33.66-49.86,0-32.69,12.39-53.17,34.69-53.17,16.32,0,24,10.14,26.23,15.93H843V11.1h18.58V153.86H843Z"/><path class="cls-1" d="M660.85,212.81H644.31l-3.45,11.58H632l16.13-48.1h9.65l15.51,48.1h-9.1ZM659,206.05l-6.06-22.47h-.14l-6.62,22.47Z"/><path class="cls-1" d="M678.43,172.7H687v51.69h-8.55Z"/><path class="cls-1" d="M696.35,172.7h8.55v51.69h-8.55Z"/><path class="cls-1" d="M714.13,173.8h8.82v8.41h-8.82Zm.14,15.09h8.55v35.49h-8.55Z"/><path class="cls-1" d="M733.08,191a24.74,24.74,0,0,1,11.23-2.62c11,0,13.58,5.38,13.58,14.27v15.51a43.77,43.77,0,0,0,.48,6.27h-7.72a17.62,17.62,0,0,1-.48-4.82H750c-2.14,2.89-4.82,5.38-9.92,5.38-5.51,0-10.61-3.79-10.61-10.41,0-9.65,7.86-12.06,18.68-12.06h1.72v-1.31c0-3.51-1.72-6.75-6.62-6.75a16.37,16.37,0,0,0-9.72,3.45ZM749.9,207h-.76c-7.3,0-11.65,1.52-11.65,6.68a5.14,5.14,0,0,0,5.44,5.44c5.1,0,7-3.79,7-10.13Z"/><path class="cls-1" d="M765.82,194.75a48.39,48.39,0,0,0-.28-5.86h8c.07,1.79.28,3.65.28,5.44H774c1.24-2.14,3.65-6,9.44-6,8.06,0,10.47,6,10.47,13.16v22.88h-8.55V203.09c0-5.44-1.38-7.72-4.89-7.72-4.48,0-6.06,3.79-6.06,8.34v20.67h-8.55Z"/><path class="cls-1" d="M825.71,223.49a24.31,24.31,0,0,1-8.41,1.45c-11.72,0-16.68-8.2-16.68-18.26s5.24-18.33,17.16-18.33a23.33,23.33,0,0,1,7.44,1.45l-.48,6.75a13.67,13.67,0,0,0-6-1.72c-6.48,0-9.3,4.34-9.3,11.92,0,6.62,3.17,11.72,9.72,11.72a13.7,13.7,0,0,0,6.06-1.72Z"/><path class="cls-1" d="M857,222.66a26.43,26.43,0,0,1-10.61,2.27c-11.44,0-16.4-8.2-16.4-17.78,0-10.61,5.58-18.81,14.61-18.81,7.65,0,14.2,4.48,14.2,19v1.65H838.25c0,6.06,2.41,9.72,9,9.72,5.24,0,7.72-1.59,9.3-2.76Zm-6.48-19.09c0-6.27-2.07-9.44-5.93-9.44-4.48,0-6.34,4.76-6.34,9.44Z"/><path class="cls-1" d="M903.91,138a14.87,14.87,0,1,1-14.82-14.47A14.54,14.54,0,0,1,903.91,138Zm-26,0a11.21,11.21,0,0,0,11.29,11.56c6.35,0,11-5.12,11-11.47s-4.68-11.64-11.11-11.64A11.24,11.24,0,0,0,877.88,138Zm8.91,7.59h-3.35V131.11a29.26,29.26,0,0,1,5.56-.44c2.73,0,4,.44,5,1.06a4,4,0,0,1,1.41,3.18c0,1.59-1.24,2.82-3,3.35v.18c1.41.53,2.21,1.59,2.65,3.53a11.09,11.09,0,0,0,1.06,3.62h-3.62a12.36,12.36,0,0,1-1.15-3.53c-.26-1.59-1.15-2.29-3-2.29h-1.59Zm.09-8.2h1.59c1.85,0,3.35-.62,3.35-2.12,0-1.32-1-2.21-3.09-2.21a8,8,0,0,0-1.85.18Z"/></svg>